<svg width="52" height="52" viewBox="0 0 52 52" xmlns="http://www.w3.org/2000/svg" xmlns:xlink="http://www.w3.org/1999/xlink" style="background:#fff"><title>Artboard 4 Copy 7</title><defs><path d="M33.222 35.175c3.816-3.057 6.254-7.72 6.254-12.944 0-9.209-7.575-16.673-16.918-16.673-9.344 0-16.919 7.464-16.919 16.673 0 5.24 2.454 9.917 6.29 12.973.957.762 2.296 1.497 2.296 1.497.45.26.813.894.813 1.41v5.432c0 3.557 2.954 6.476 6.597 6.476h1.846c3.66 0 6.596-2.9 6.596-6.476v-5.43c0-.52.376-1.157.823-1.419 0 0 1.356-.745 2.322-1.52z" id="a"/><mask id="b" x="0" y="0" width="33.837" height="44.462" fill="#fff"><use xlink:href="#a"/></mask></defs><g transform="translate(4 1)" fill="none" fill-rule="evenodd"><path d="M33.837 22.23c0 6.14-5.05 11.116-11.28 11.116-6.228 0-11.278-4.977-11.278-11.115 0-6.139 5.05-11.116 11.278-11.116 6.23 0 11.28 4.977 11.28 11.116" fill="#9CEFE7"/><use stroke="#087A70" mask="url(#b)" stroke-width="3.8" xlink:href="#a"/><path d="M15.978 41.683h13.159M6.58 22.23c0 7.426 5.215 13.652 12.233 15.313m2.805-21.796l3.634 4.477a.25.25 0 0 1 0 .308l-3.51 4.324a.658.658 0 0 0-.124.353v3.506M4.765 10.128A20.994 20.994 0 0 0 .94 22.231c0 5.289 1.955 10.127 5.193 13.852m32.349.556a21.157 21.157 0 0 0 4.957-8.873m.545-8.382C42.572 8.964 33.517.926 22.558.926a21.754 21.754 0 0 0-11.254 3.111" stroke="#087A70" stroke-width="1.9" stroke-linecap="round"/></g></svg>